<svg xmlns="http://www.w3.org/2000/svg" xmlns:xlink="http://www.w3.org/1999/xlink" id="logo-graal-systems-blanc" shape-rendering="geometricPrecision" text-rendering="geometricPrecision" viewBox="0 300 800 400">
    <style><![CDATA[

    #logo-graal-systems-blanc-u-g18 {
        animation: logo-graal-systems-blanc-u-g18_c_o 3000ms linear 1 normal forwards;
        animation-delay: 2s;
    }
    
    @keyframes logo-graal-systems-blanc-u-g18_c_o { 
        0% {
            opacity: 0;
            animation-timing-function: cubic-bezier(0.42,0,0.58,1)
            } 
        30% {
            opacity: 1
            } 
        100% {
            opacity: 1
            }
        }
     
    #logo-graal-systems-blanc-u-g22 {
        animation: logo-graal-systems-blanc-u-g22_c_o 3000ms linear 1 normal forwards;
        animation-delay: 2s;
        }
    
    @keyframes logo-graal-systems-blanc-u-g22_c_o { 
        0% {
            opacity: 0;
            animation-timing-function: cubic-bezier(0.42,0,0.58,1)
        } 
        30% {
            opacity: 1
        } 
        100% {
            opacity: 1
        }
    } 
    
    #logo-graal-systems-blanc-u-path30 {
        animation: logo-graal-systems-blanc-u-path30_c_o 3000ms linear 1 normal forwards;
        animation-delay: 2s;
    }
    
    @keyframes logo-graal-systems-blanc-u-path30_c_o { 
        0% {
            opacity: 0;
            animation-timing-function: cubic-bezier(0.42,0,0.58,1)
            }
        30% {
            opacity: 1
        } 
        100% {
            opacity: 1
            }
        }
     
    #logo-graal-systems-blanc-u-g32 {
        animation: logo-graal-systems-blanc-u-g32_c_o 3000ms linear 1 normal forwards;
        animation-delay: 2s;
        }

    @keyframes logo-graal-systems-blanc-u-g32_c_o { 
        0% {
            opacity: 0;
            animation-timing-function: cubic-bezier(0.42,0,0.58,1)
            } 
        30% {
            opacity: 1
            } 
        100% {
            opacity: 1
            }
        } 

    #logo-graal-systems-blanc-u-g114 {
        animation: logo-graal-systems-blanc-u-g114_c_o 3000ms linear 1 normal forwards;
        animation-delay: 2s;
    }
    
    @keyframes logo-graal-systems-blanc-u-g114_c_o { 
        0% {
            opacity: 0
            } 
        
        33.333333% {
            opacity: 0;animation-timing-function: cubic-bezier(0.42,0,0.58,1)
            } 
        
        56.666667% {
            opacity: 1
            } 
        
        100% {
            opacity: 1
            }
        } 
    
    #logo-graal-systems-blanc-u-g118 {
        animation: logo-graal-systems-blanc-u-g118_c_o 3000ms linear 1 normal forwards;
        animation-delay: 2s;
        }
    
    @keyframes logo-graal-systems-blanc-u-g118_c_o { 
        0% {
            opacity: 0
            } 
        
        40% {
            opacity: 0;
            animation-timing-function: cubic-bezier(0.42,0,0.58,1)
            } 
        
        63.333333% {
            opacity: 1
            }
        
        100% {
            opacity: 1
            }
        } 
    
    #logo-graal-systems-blanc-u-g122_ {
        animation: logo-graal-systems-blanc-u-g122__c_o 3000ms linear 1 normal forwards;
        animation-delay: 2s;
        }
    
    @keyframes logo-graal-systems-blanc-u-g122__c_o { 
        0% {
            opacity: 0
            } 
        
        46.666667% {
            opacity: 0;
            animation-timing-function: cubic-bezier(0.42,0,0.58,1)
            } 
        
        70% {
            opacity: 1
            } 
        
        100% {
            opacity: 1
            }
        } 
    
    #logo-graal-systems-blanc-u-g126_ {
        animation: logo-graal-systems-blanc-u-g126__c_o 3000ms linear 1 normal forwards;
        animation-delay: 2s;
        }
    
    @keyframes logo-graal-systems-blanc-u-g126__c_o { 
        0% {
            opacity: 0
            } 
            
        53.333333% {
            opacity: 0;
            animation-timing-function: cubic-bezier(0.42,0,0.58,1)
            } 
        
        76.666667% {
            opacity: 1
            } 
        
        100% {
            opacity: 1
            }
        } 
    
    #logo-graal-systems-blanc-u-g130 {
        animation: logo-graal-systems-blanc-u-g130_c_o 3000ms linear 1 normal forwards;
        animation-delay: 2s;
    }
    
    @keyframes logo-graal-systems-blanc-u-g130_c_o { 
        0% {
            opacity: 0
            } 
        
        60% {
            opacity: 0;
            animation-timing-function: cubic-bezier(0.42,0,0.58,1)
            } 
        
        83.333333% {
            opacity: 1
            } 
        
        100% {
            opacity: 1
            }
        } 
    
    #logo-graal-systems-blanc-u-g134 {
        animation: logo-graal-systems-blanc-u-g134_c_o 3000ms linear 1 normal forwards;
        animation-delay: 2s;
        }
    
    @keyframes logo-graal-systems-blanc-u-g134_c_o { 
        0% {
            opacity: 0
            } 
        
        66.666667% {
            opacity: 0;
            animation-timing-function: cubic-bezier(0.42,0,0.58,1)
            } 
        
        90% {
            opacity: 1
            } 
        
        100% {
            opacity: 1
            }
        } 
        
        #logo-graal-systems-blanc-u-g138 {
            animation: logo-graal-systems-blanc-u-g138_c_o 3000ms linear 1 normal forwards;
            animation-delay: 2s;
            }
        
        @keyframes logo-graal-systems-blanc-u-g138_c_o {
            0% {
                opacity: 0
                }

            73.333333% {
                opacity: 0;
                animation-timing-function: cubic-bezier(0.42,0,0.58,1)
                } 
            
            96.666667% {
                opacity: 1
                } 
            
            100% {
                opacity: 1
                }
            }
        
        #logo-mask-animation-test {
            animation: logo-mask-animation-test-keys 2000ms linear;
        }

        @keyframes logo-mask-animation-test-keys {
            0% {     
               d: path('M627.221149,556.202597h-126.43194L430.60921,466.897356L544.971877,657.287299L240.262238,621.577405l98.259803-250.314833l288.699108-3.225409v188.165434');
                }
            
            30% {     
               d: path('M627.221149,556.202597h-126.43194L430.60921,466.897356l-86.557895,5.746961-69.576695-71.369823l64.047421-30.011922l288.699108-3.225409v188.165434');
                }

            40% {     
               d: path('M627.221149,556.202597H500.78920899999997L430.60921,466.897356L429.718542,385.085759L421.24654200000003,336.704611L516.577209,332.557656L627.2211490000001,368.037163V556.202597');
                }
            
            50% {     
               d: path('M627.221149,556.202597H500.78920899999997L430.60921,466.897356L505.92654100000004,467.516326L471.3427,401.274493L516.577209,332.557656L627.2211490000001,368.037163V556.202597');
                }
    
            60% {     
               d: path('M627.221149,556.202597H500.78920899999997L505.03509299999996,552.5231339999999L505.926541,467.51632599999994L471.3427,401.274493L516.577209,332.557656L627.2211490000001,368.037163V556.202597');
                }

            70% {     
               d: path('M 627.2211 556.2026 H 662 L 604 526 L 505.9265 467.5163 L 471.3427 401.2745 L 516.5772 332.5577 L 627.2211 368.0372 V 556.2026');
                }

            80% {     
               d: path('M 627.2211 556.2026 H 662 L 680 441 L 505.9265 467.5163 L 471.3427 401.2745 L 516.5772 332.5577 L 627.2211 368.0372 V 556.2026');
                }

            90% {     
               d: path('M 627.2211 556.2026 H 662 L 598 174 L 505.9265 467.5163 L 471.3427 401.2745 L 516.5772 332.5577 L 627.2211 368.0372 V 556.2026');
                }

            100% {     
               d: path('M 627.2211 556.2026 H 859 L 258 3 L 505.9265 467.5163 L 471.3427 401.2745 L 516.5772 332.5577 L 627.2211 368.0372 V 556.2026');
                }

    ]]></style>

    <defs>
        <mask id="mask_infini" maskContentUnits="userSpaceOnUse">
            <rect width="400" height="500" x="400" y="100" fill="#fff"/>
            <!-- <path id="logo-mask-animation-test" fill="#fff"/> -->
        </mask>
    </defs>

    <rect id="logo-graal-systems-blanc-u-background-delete" width="1049.589955" height="676.889605" rx="0" ry="0" transform="matrix(.962167 0 0 2.233808-85.539458-223.500537)" fill="#471c73" stroke-width="0"/>
    
    <g id="logo-graal-systems-blanc-u-logo-graal-systems-blanc" transform="matrix(1.33333 0 0-1.33333 0 1133.86)">
    <!--  -->
    <g id="logo-graal-systems-blanc-u-g10">
    
    <g id="logo-graal-systems-blanc-s-g1" clip-path="url(#logo-graal-systems-blanc-u-clippath16)">
    
    <g id="logo-graal-systems-blanc-u-g12">
    
    <g id="logo-graal-systems-blanc-u-g18" transform="translate(340.922 462.74)" opacity="0">
    
        <path id="logo-graal-systems-blanc-u-path20" d="M0,0c0,0,5.991-8.203,21.752-14.01h-21.752L0,0Z" fill="#fff"/>
    
    </g>
    
    <g id="logo-graal-systems-blanc-u-g22" transform="translate(245.284 451.006)" opacity="0">
    
        <path id="logo-graal-systems-blanc-u-path24" d="M0,0h-21.9v58.555c0,28.355,15.909,39.651,37.347,39.651h5.302v-21.209h-4.15C5.533,76.997,0,70.772,0,58.555L0,0Z" fill="#fff"/>
    
    </g>
    
    <path id="logo-graal-systems-blanc-u-path30" d="M479.36,617.919h-22.747v-167.328h22.747v167.328Z" opacity="0" fill="#fff"/>
    
    <g id="logo-graal-systems-blanc-u-g32" transform="translate(164.324 475.433)" opacity="0">
    
        <path id="logo-graal-systems-blanc-u-path34" d="M0,0c-13.562,0-24.596,11.034-24.596,24.596c0,13.563,11.034,24.596,24.596,24.596c13.563,0,24.596-11.033,24.596-24.596C24.596,11.034,13.563,0,0,0m31.608-12.972c10.703,9.019,17.519,22.51,17.519,37.568c0,15.046-6.806,28.527-17.493,37.546c5.1,4.69,9.258,10.486,12.062,17.157L21.082,88.801C17.232,79.642,8.325,73.723,-1.61,73.723v-.041c-26.345-.855-47.517-22.537-47.517-49.086c0-26.548,21.172-48.231,47.517-49.085v-.041c9.702,0,18.03-5.695,22.031-13.873c1.592-3.255,2.565-6.863,2.565-10.724c0-11.011-7.32-20.246-17.316-23.371l.001.024c-1.676-.517-3.412-.87-5.189-1.038-.093-.008-.184-.021-.276-.028-1.806-.15-3.654-.104-5.526.189-5.74.898-10.625,3.796-14.265,7.787h-28.191c5.88-16.381,20.293-29.149,38.665-32.022c2.524-.395,5.025-.543,7.501-.533v-.135c27.089,0,49.126,22.039,49.126,49.127c0,4.786-.743,9.392-2.025,13.768-2.548,8.691-7.384,16.412-13.883,22.387" fill="#fff"/></g><g id="logo-graal-systems-blanc-u-g114" transform="translate(236.521 427.168)" opacity="0"><path id="logo-graal-systems-blanc-u-path116" d="M0,0l-3.194.919c-2.75.797-2.75,2.019-2.75,2.422c0,1.578,1.431,2.766,3.319,2.766c1.981,0,3.269-1.169,3.269-2.979v-.64h7.063v.64c0,5.522-4.194,9.379-10.207,9.379s-10.544-3.994-10.544-9.291c0-2.994,1.362-6.926,7.869-8.648l3.481-.996c2.838-.866,3.169-2.035,3.169-2.838c0-1.71-1.431-2.816-3.644-2.816-2.244,0-4.025,1.369-4.063,3.116l-.006.628h-7.05v-.641c0-5.481,4.606-9.459,10.95-9.459c5.257,0,10.913,2.959,10.913,9.459C8.575,-3.216,3.688,-1.097,0,0" fill="#fff"/></g><g id="logo-graal-systems-blanc-u-g118" transform="translate(271.429 428.802)" opacity="0"><path id="logo-graal-systems-blanc-u-path120" d="M0,0L-6.538,10.079l-.187.293h-8.495L-3.513,-6.116v-13.457h7.057v13.376L15.295,10.372h-8.445L0,0Z" fill="#fff"/></g><g id="logo-graal-systems-blanc-u-g122_" transform="translate(311.412 427.168)" opacity="0"><path id="logo-graal-systems-blanc-u-path124" d="M0,0l-3.194.919c-2.75.797-2.75,2.019-2.75,2.422c0,1.578,1.431,2.766,3.319,2.766c1.981,0,3.269-1.169,3.269-2.979v-.64h7.063v.64c0,5.522-4.194,9.379-10.207,9.379s-10.544-3.994-10.544-9.291c0-2.994,1.362-6.926,7.869-8.648l3.481-.996c2.838-.866,3.169-2.035,3.169-2.838c0-1.71-1.431-2.816-3.644-2.816-2.244,0-4.025,1.369-4.063,3.116l-.006.628h-7.05v-.641c0-5.481,4.606-9.459,10.95-9.459c5.257,0,10.913,2.959,10.913,9.459C8.575,-3.216,3.688,-1.097,0,0" fill="#fff"/></g><g id="logo-graal-systems-blanc-u-g126_" transform="translate(333.107 432.774)" opacity="0"><path id="logo-graal-systems-blanc-u-path128" d="M0,0h7.907v-23.545h7.056v23.545h7.907v6.4L0,6.4L0,0Z" fill="#fff"/></g><g id="logo-graal-systems-blanc-u-g130" transform="translate(378.565 420.755)" opacity="0"><path id="logo-graal-systems-blanc-u-path132" d="M0,0h10.694v6.482L0,6.482v5.537h12.194v6.401h-19.251v-29.946h19.626v6.401h-12.569L0,0Z" fill="#fff"/></g><g id="logo-graal-systems-blanc-u-g134" transform="translate(432.643 439.175)" opacity="0"><path id="logo-graal-systems-blanc-u-path136" d="M0,0l-8.369-17.935L-16.826,0h-5.881l-3.694-29.945h7.2l1.894,16.16l6.288-12.916h5.337l6.207,12.897l1.894-16.141h7.2L5.969,0L0,0Z" fill="#fff"/></g><g id="logo-graal-systems-blanc-u-g138" transform="translate(470.501 427.168)" opacity="0"><path id="logo-graal-systems-blanc-u-path140" d="M0,0l-3.194.919c-2.75.797-2.75,2.019-2.75,2.422c0,1.578,1.431,2.766,3.319,2.766c1.981,0,3.269-1.169,3.269-2.979v-.64h7.063v.64c0,5.522-4.194,9.379-10.207,9.379s-10.544-3.994-10.544-9.291c0-2.994,1.362-6.926,7.869-8.648l3.481-.996c2.844-.869,3.175-2.035,3.175-2.838c0-1.71-1.431-2.816-3.65-2.816-2.244,0-4.025,1.369-4.063,3.116l-.006.628h-7.05v-.641c0-5.481,4.606-9.459,10.95-9.459c5.257,0,10.913,2.959,10.913,9.459C8.575,-3.216,3.688,-1.097,0,0" fill="#fff"/></g></g><clipPath id="logo-graal-systems-blanc-u-clippath16"><path id="logo-graal-systems-blanc-u-path14" d="M0,850.394h595.276v-850.394L0,0v850.394Z"/></clipPath></g></g></g><g id="logo-graal-systems-blanc-u-g262" transform="matrix(1.333332 0 0-1.371583 582.895122 464.895173)">
        
        <!-- boucle du logo -->
        <path id="logo-graal-systems-blanc-u-path282" d="M0,0c-.308,14.717-6.888,29.031-18.623,38.073-2.04,1.629-4.252,3.049-6.584,4.271-.774.406-1.628.661-2.428,1.022-1.609.725-3.204,1.481-4.898,2.024-1.011.323-2.074.48-3.108.738-1.558.389-3.101.83-4.696,1.069-1.141.171-2.3.173-3.451.266-1.524.124-3.043.305-4.571.294-1.579-.012-3.138-.228-4.705-.385-1.164-.116-2.339-.134-3.488-.331-1.624-.278-3.184-.775-4.761-1.214-1.042-.291-2.122-.472-3.137-.834-1.708-.608-6.022-2.196-7.63-3.007-.794-.4-1.651-.683-2.415-1.132-.203-.119-.366-.294-.566-.416c3.656-3.842,10.114-11.562,12.046-19.898.645.436,1.253.94,1.935,1.303.193.104.398.174.593.272c1.285.64,5.344,1.889,6.718,2.28.319.091.628.196.951.272c1.524.361,3.083.562,4.674.588.116.002.226.042.343.042.565,0,1.139-.076,1.71-.121.362-.029.721-.03,1.086-.077c1.114-.145,2.233-.36,3.354-.685c5.646-1.703,10.148-5.421,13.209-10.146c1.531-2.363,2.701-4.977,3.475-7.718.773-2.741,1.15-5.607,1.092-8.474-.01-1.289-.111-2.575-.301-3.846-.568-3.813-1.928-7.493-3.968-10.722-2.719-4.304-6.649-7.806-11.526-9.749-1.213-.486-2.456-.828-3.71-1.08-.409-.082-.819-.108-1.23-.166-.855-.121-1.707-.218-2.564-.238-.174-.004-.347-.048-.521-.048-.24,0-.473.069-.713.077-1.157.037-2.301.161-3.438.373-.337.063-.672.101-1.006.179-1.401.327-2.769.774-4.09,1.355-.27.119-.518.272-.784.401-1.072.52-2.098,1.122-3.083,1.803-.331.229-.656.452-.975.699-1.165.899-2.279,1.871-3.262,2.994-1.221,1.385-2.256,2.866-3.121,4.423-2.595,4.669-3.655,10.015-3.612,15.469.25,15.891-8.157,31.705-21.527,40.285-1.819,1.191-3.739,2.219-5.714,3.127-.655.3-1.345.517-2.015.787-1.348.544-2.702,1.073-4.098,1.491-.819.244-1.658.417-2.489.618-1.293.312-2.59.607-3.905.815-.892.14-1.789.229-2.687.322-1.286.132-2.574.229-3.866.263-1.053.027-2.104.031-3.156-.006-.784-.029-1.567-.061-2.349-.126-1.193-.098-2.377-.259-3.558-.441-.739-.115-1.482-.211-2.215-.359-1.276-.257-2.529-.598-3.777-.955-.609-.174-1.23-.31-1.83-.508-1.83-.603-3.627-1.298-5.36-2.123-13.467-6.252-22.933-19.084-25.915-33.532-4.232-19.739,3.367-41.305,20.47-52.521c1.862-1.25,3.831-2.307,5.855-3.225.665-.302,1.363-.509,2.042-.775c1.387-.543,2.781-1.063,4.214-1.455.823-.226,1.663-.373,2.497-.548c1.329-.279,2.662-.526,4.008-.676.889-.1,1.78-.149,2.672-.193c1.648-.08,3.298-.129,4.941-.018.219.014.439.011.658.03c2.048.17,4.074.519,6.07.989.333.079.668.151,1,.238c1.941.51,3.842,1.169,5.687,1.968.327.142.65.295.973.446c1.848.861,3.642,1.852,5.343,3.013.224.153.434.328.655.486c1.269.908,2.432,1.986,3.6,3.055-5.144,6.783-8.159,13.753-9.421,17.076-.011-.009-.022-.02-.033-.029-1.223-.977-2.504-1.84-3.847-2.57-.25-.135-.507-.246-.761-.372-1.334-.666-2.711-1.224-4.144-1.613-.112-.03-.216-.078-.328-.107-1.496-.38-3.051-.548-4.638-.59-.186-.005-.356-.069-.543-.069-.165,0-.342.053-.508.057-1.411.033-2.842.156-4.31.484-6.243,1.328-11.211,5.07-14.53,10.017-1.659,2.473-2.906,5.247-3.694,8.172-.787,2.924-1.115,5.999-.937,9.072.053,1.515.226,3.02.513,4.496.863,4.428,2.752,8.598,5.491,12.025c2.74,3.427,6.33,6.11,10.596,7.562c1.422.483,2.919.831,4.485,1.023v0c.968.13,1.925.193,2.871.193.219,0,.427-.048.645-.055.547-.017,1.078-.081,1.615-.139.727-.078,1.445-.173,2.151-.324.531-.113,1.048-.255,1.566-.407.683-.201,1.35-.427,2.008-.692.499-.201.987-.415,1.469-.651.639-.312,1.254-.658,1.861-1.028.455-.278.904-.554,1.34-.861.591-.418,1.149-.876,1.703-1.347.398-.339.801-.665,1.178-1.029.547-.527,1.046-1.099,1.546-1.676.324-.374.664-.728.967-1.121.517-.672.972-1.391,1.424-2.115.222-.355.472-.685.678-1.051.624-1.112,1.18-2.268,1.641-3.472.424-1.003.756-2,1.019-2.993.524-1.986.769-3.956.899-5.923.259-3.933.06-7.855.727-11.87.167-1.004.388-2.014.684-3.032c2.357-8.958,7.111-17.149,13.722-23.418c3.966-3.762,8.602-6.831,13.789-8.96.001-.001.003-.001.005-.001c1.657-.667,3.36-1.184,5.077-1.631.441-.114.882-.22,1.326-.32c1.625-.367,3.263-.663,4.914-.836.11-.012.22-.037.331-.048c1.754-.17,3.515-.197,5.27-.149.427.011.854.034,1.281.059c1.654.095,3.302.264,4.928.554.11.019.222.026.332.046c1.71.319,3.388.781,5.041,1.315.409.131.814.273,1.219.418c1.595.573,3.166,1.216,4.677,1.993.057.029.117.05.173.079c1.548.804,3.024,1.755,4.458,2.774.355.253.705.513,1.052.779c1.413,1.081,2.784,2.231,4.049,3.529-.035-2.756-.084-9.206-.122-12.373h22.638C0.092,-35.055,0.075,-15.481,0,0" transform="matrix(1.000001 0 0 0.972111-.000434-.040705)" fill="#ffffff"/>
    
    </g>
    <!-- <rect width="100" height="400" x="400" y="100" fill="#fff" /> -->
    <path id="logo-mask-animation-test" fill="#471c73"/>

</svg>